<svg width="24" height="25" viewBox="0 0 24 25" fill="none" xmlns="http://www.w3.org/2000/svg">
<path d="M3 3.5H4.875L5.80319 7.625M18.75 17H7.875L7.125 14M5.80319 7.625H19.5L18.5089 14H7.125M5.80319 7.625L7.125 14M10.5 20.5999C10.5 21.2212 9.99632 21.7249 9.375 21.7249C8.75368 21.7249 8.25 21.2212 8.25 20.5999C8.25 19.9785 8.75368 19.4749 9.375 19.4749C9.99632 19.4749 10.5 19.9785 10.5 20.5999ZM17.25 20.5999C17.25 21.2212 16.7463 21.7249 16.125 21.7249C15.5037 21.7249 15 21.2212 15 20.5999C15 19.9785 15.5037 19.4749 16.125 19.4749C16.7463 19.4749 17.25 19.9785 17.25 20.5999Z" stroke="white" stroke-width="2"/>
</svg>
