<svg width="19" height="19" viewBox="0 0 19 19" fill="none" xmlns="http://www.w3.org/2000/svg">
<path d="M9.30566 5.0083C6.80566 5.0083 4.81348 7.03955 4.81348 9.50049C4.81348 12.0005 6.80566 13.9927 9.30566 13.9927C11.7666 13.9927 13.7979 12.0005 13.7979 9.50049C13.7979 7.03955 11.7666 5.0083 9.30566 5.0083ZM9.30566 12.4302C7.7041 12.4302 6.37598 11.1411 6.37598 9.50049C6.37598 7.89893 7.66504 6.60986 9.30566 6.60986C10.9072 6.60986 12.1963 7.89893 12.1963 9.50049C12.1963 11.1411 10.9072 12.4302 9.30566 12.4302ZM15.0088 4.85205C15.0088 4.26611 14.54 3.79736 13.9541 3.79736C13.3682 3.79736 12.8994 4.26611 12.8994 4.85205C12.8994 5.43799 13.3682 5.90674 13.9541 5.90674C14.54 5.90674 15.0088 5.43799 15.0088 4.85205ZM17.9775 5.90674C17.8994 4.50049 17.5869 3.25049 16.5713 2.23486C15.5557 1.21924 14.3057 0.906738 12.8994 0.828613C11.4541 0.750488 7.11816 0.750488 5.67285 0.828613C4.2666 0.906738 3.05566 1.21924 2.00098 2.23486C0.985352 3.25049 0.672852 4.50049 0.594727 5.90674C0.516602 7.35205 0.516602 11.688 0.594727 13.1333C0.672852 14.5396 0.985352 15.7505 2.00098 16.8052C3.05566 17.8208 4.2666 18.1333 5.67285 18.2114C7.11816 18.2896 11.4541 18.2896 12.8994 18.2114C14.3057 18.1333 15.5557 17.8208 16.5713 16.8052C17.5869 15.7505 17.8994 14.5396 17.9775 13.1333C18.0557 11.688 18.0557 7.35205 17.9775 5.90674ZM16.1025 14.6567C15.8291 15.438 15.2041 16.0239 14.4619 16.3364C13.29 16.8052 10.5557 16.688 9.30566 16.688C8.0166 16.688 5.28223 16.8052 4.14941 16.3364C3.36816 16.0239 2.78223 15.438 2.46973 14.6567C2.00098 13.5239 2.11816 10.7896 2.11816 9.50049C2.11816 8.25049 2.00098 5.51611 2.46973 4.34424C2.78223 3.60205 3.36816 3.01611 4.14941 2.70361C5.28223 2.23486 8.0166 2.35205 9.30566 2.35205C10.5557 2.35205 13.29 2.23486 14.4619 2.70361C15.2041 2.97705 15.79 3.60205 16.1025 4.34424C16.5713 5.51611 16.4541 8.25049 16.4541 9.50049C16.4541 10.7896 16.5713 13.5239 16.1025 14.6567Z" fill="#1A458B"/>
</svg>
