<svg width="21" height="17" viewBox="0 0 21 17" fill="none" xmlns="http://www.w3.org/2000/svg">
<path d="M18.4854 4.43799C19.2666 3.85205 19.9697 3.14893 20.5166 2.32861C19.8135 2.64111 18.9932 2.87549 18.1729 2.95361C19.0322 2.4458 19.6572 1.66455 19.9697 0.687988C19.1885 1.15674 18.29 1.5083 17.3916 1.70361C16.6104 0.883301 15.5557 0.414551 14.3838 0.414551C12.1182 0.414551 10.2822 2.25049 10.2822 4.51611C10.2822 4.82861 10.3213 5.14111 10.3994 5.45361C7.00098 5.2583 3.9541 3.61768 1.92285 1.15674C1.57129 1.74268 1.37598 2.4458 1.37598 3.22705C1.37598 4.6333 2.0791 5.8833 3.21191 6.62549C2.54785 6.58643 1.88379 6.43018 1.33691 6.11768V6.15674C1.33691 8.14893 2.74316 9.78955 4.61816 10.1802C4.30566 10.2583 3.91504 10.3364 3.56348 10.3364C3.29004 10.3364 3.05566 10.2974 2.78223 10.2583C3.29004 11.8989 4.81348 13.0708 6.61035 13.1099C5.2041 14.2036 3.44629 14.8677 1.53223 14.8677C1.18066 14.8677 0.868164 14.8286 0.555664 14.7896C2.35254 15.9614 4.50098 16.6255 6.84473 16.6255C14.3838 16.6255 18.4854 10.4146 18.4854 4.98486C18.4854 4.78955 18.4854 4.6333 18.4854 4.43799Z" fill="#1A458B"/>
</svg>
